<?xml version="1.0" encoding="utf-8"?>
<!-- Generator: Adobe Illustrator 25.0.0, SVG Export Plug-In . SVG Version: 6.00 Build 0)  -->
<svg version="1.1" id="Capa_1" xmlns="http://www.w3.org/2000/svg" xmlns:xlink="http://www.w3.org/1999/xlink" x="0px" y="0px"
	 viewBox="0 0 512 512" style="enable-background:new 0 0 512 512;" xml:space="preserve">
<style type="text/css">
	.st0{fill:#3858E9;}
</style>
<path class="st0" d="M256,62C149.1,62,62,149,62,256c0,106.9,87.1,194,194,194s194-87.1,194-194C450,149,362.9,62,256,62z M81.6,256
	c0-25.3,5.4-49.3,15.1-71l83.2,228C121.7,384.7,81.6,325,81.6,256z M256,430.4c-17.1,0-33.6-2.5-49.3-7.1L259,271.2l53.6,146.9
	c0.4,0.9,0.8,1.6,1.3,2.4C295.8,426.9,276.3,430.4,256,430.4z M280,174.3c10.5-0.5,19.9-1.6,19.9-1.6c9.4-1.1,8.3-14.9-1.1-14.4
	c0,0-28.2,2.2-46.5,2.2c-17.1,0-45.9-2.2-45.9-2.2c-9.4-0.5-10.5,13.8-1.1,14.4c0,0,8.9,1.1,18.3,1.6l27.1,74.5l-38.2,114.4
	L149,174.3c10.5-0.5,19.9-1.6,19.9-1.6c9.4-1.1,8.3-14.9-1.1-14.4c0,0-28.2,2.2-46.5,2.2c-3.3,0-7.1-0.1-11.3-0.2
	c31.2-47.3,84.8-78.6,145.7-78.6c45.4,0,86.8,17.4,117.8,45.8c-0.8-0.1-1.5-0.2-2.3-0.2c-17.1,0-29.3,14.9-29.3,31
	c0,14.4,8.3,26.5,17.1,40.9c6.6,11.6,14.4,26.5,14.4,48.1c0,14.9-5.7,32.2-13.3,56.4l-17.4,58.1L280,174.3L280,174.3z M343.7,406.7
	l53.3-154c9.9-24.9,13.3-44.7,13.3-62.5c0-6.4-0.4-12.4-1.2-17.9c13.6,24.9,21.4,53.3,21.4,83.7
	C430.4,320.4,395.6,376.5,343.7,406.7z"/>
</svg>
