<?xml version="1.0" encoding="utf-8"?>
<!-- Generator: Adobe Illustrator 25.0.0, SVG Export Plug-In . SVG Version: 6.00 Build 0)  -->
<svg version="1.1" id="Capa_1" xmlns="http://www.w3.org/2000/svg" xmlns:xlink="http://www.w3.org/1999/xlink" x="0px" y="0px"
	 viewBox="0 0 1200 1200" style="enable-background:new 0 0 1200 1200;" xml:space="preserve">
<style type="text/css">
	.st0{fill:#206d7e;}
</style>
<g transform="translate(0.000000,2048.000000) scale(0.100000,-0.100000)">
	<path class="st0" d="M1775,17002.4c1-305-1-710-4-900c-18-1101-22-4051-7-4187c13-105,41-225,81-338c150-422,510-745,965-865
		c242-64,319-69,1143-76c690-5,731-7,797-26c97-28,204-84,320-169c357-259,479-299,930-299c487,0,563,26,1010,341
		c55,39,124,82,153,96c112,53,106,53,842,53c377,1,741,5,810,9c442,31,848,224,1100,524c77,90,114,147,178,267
		c73,138,111,267,143,480c7,53,10,882,9,2842c-1,3003,2,2846-55,3043c-66,226-191,422-391,615c-217,209-398,301-749,378l-120,26
		l-1575,1c-866,1-1924-2-2350-6c-426-3-981-7-1232-8c-423-1-499.6-5-544.6-7c-769.9,36.2-1171-540-1111.4-463
		c297.8,45.6,585,6,686,46c46,18,125,40,175,50c111,21-105,21,3327,10c2187-7,2567-10,2635-23c234-43,415-141,590-318
		c156-159,247-330,281-533c16-90,17-315,15-2813c-2-2958,1-2794-57-2970c-60-178-210-381-354-476l-35-23l-68,24
		c-208,76-591,145-912,165c-168,10-443,0-545-20c-30-6-80-15-110-21c-332-63-638-191-845-355c-89-71-256-234-305-299
		c-21-27-62-81-92-120l-53-70l-103-3c-123-3-122-6-56,117c147,271,361,498,647,685c165,108,469,225,702,270c249,48,278,51,600,50
		c333,0,460-12,737-70c103-22,344-89,391-109c16-7,17,11,17,294v302l-37,15c-101,43-467,118-748,155c-226,30-657,33-835,6
		c-683-104-1190-352-1573-771c-46-50-98-111-117-136c-34-44-50-60-60-60c-3,0-43,45-89,100c-300,359-679,612-1113,744
		c-395,120-724,159-1161,138c-242-12-338-23-542-62c-188-36-429-91-453-104l-23-12l-2-297c-1-163-1-297,1-297s42,11,90,25
		c143,40,388,93,547,117c132,19,190,22,475,23c264,0,347-3,445-18c300-45,597-139,805-254c245-136,486-355,638-581
		c85-126,142-230,142-257c0-12-17-15-97-15h-98l-75,97c-120,155-179,220-270,301c-218,192-520,345-825,417c-265,63-328,69-660,70
		c-247,0-336-4-435-18c-244-35-418-73-610-132c-129-39-117-42-209,41c-167,150-291,375-320,579c-11,78-18,1079-27,3810
		c-6,1896-7,1857,30,2010c9,42,69,171,93,203c14,18,101,132,121,154c29,32,131,107,162,138c5,5,43,26,107,60
		c1105.4,505.2-49.4,753-704-170c-87-141-156.9-310-162.8-410 M2899,18746.4c4-10,12-14,24-9c12,4,14,3,6-5c-7-7-23-7-50-1
		c-25,6-31,9-16,10c13,1,20,6,17,11c-3,6-2,10,3,10C2889,18762.4,2896,18755.4,2899,18746.4z M2815,18718.4c0-2-11-6-25-8
		c-14-3-25-1-25,3c0,5,11,9,25,9S2815,18720.4,2815,18718.4z M2675,18662.4c13-8,13-10-2-10c-9,0-20,5-23,10
		C2642,18675.4,2655,18675.4,2675,18662.4z M2535,18632.4c0-5-2-10-4-10c-3,0-8,5-11,10c-3,6-1,10,4,10
		C2530,18642.4,2535,18638.4,2535,18632.4z M2610,18632.4c3-5,1-10-4-10c-6,0-11,5-11,10c0,6,2,10,4,10
		C2602,18642.4,2607,18638.4,2610,18632.4z M2360,18503.4c-3-6-11-11-17-11s-6,6,2,15C2359,18524.4,2371,18520.4,2360,18503.4z
		 M2265,18422.4c0-5-8-10-17-10c-15,0-16,2-3,10C2264,18434.4,2265,18434.4,2265,18422.4z M2735,18382.4c-12-8-12-10-1-10
		c8,0,12-2,9-5s-13-2-22,1c-14,5-15,9-4,15c7,5,18,9,23,9C2746,18392.4,2743,18387.4,2735,18382.4z"/>
	<path class="st0" d="M2950,18782.4l-20-9h20c11,0,29,4,40,9l20,9h-20C2979,18791.4,2961,18787.4,2950,18782.4z"/>
	<path class="st0" d="M2723,18635.4c6-2,18-2,25,0c6,3,1,5-13,5S2716,18638.4,2723,18635.4z"/>
	<path class="st0" d="M3018,18621.4c-11-11,5-59,20-59c5,0,5,5,2,10c-4,6-1,17,5,25C3065,18621.4,3041,18644.4,3018,18621.4z"/>
	<path class="st0" d="M2735,18598.4c0-2,7-6,15-10c8-3,15-1,15,4c0,6-7,10-15,10S2735,18600.4,2735,18598.4z"/>
	<path class="st0" d="M2478,18575.4c9-2,25-2,35,0c9,3,1,5-18,5S2468,18578.4,2478,18575.4z"/>
	<path class="st0" d="M2745,18558.4c0-9,30-14,35-6c4,6-3,10-14,10C2754,18562.4,2745,18560.4,2745,18558.4z"/>
	<path class="st0" d="M2728,18531.4c9-5,17-14,17-19c0-13-33-13-47,1c-7,7-12,0-17-25c-8-40-2-56,20-56c16,0,19,16,4,25
		c-19,12-10,23,24,27c19,2,32,0,30-4c-10-16,34-8,57,10c13,10,33,22,44,27c19,7,19,8-5,15c-43,14-62,11-67-10c-3-11-8-20-12-20
		s-13,9-21,20s-21,20-30,20C2713,18541.4,2713,18539.4,2728,18531.4z"/>
	<path class="st0" d="M2925,18521.4c0-5,5-7,10-4c6,3,10,8,10,11c0,2-4,4-10,4C2930,18532.4,2925,18527.4,2925,18521.4z"/>
	<path class="st0" d="M2433,18484.4c-29-6-21-23,8-18c15,3,28,7,31,9C2479,18482.4,2451,18489.4,2433,18484.4z"/>
	<path class="st0" d="M2526,18483.4c-7-5-9-11-5-14c5-3,15,1,22,9C2557,18494.4,2548,18496.4,2526,18483.4z"/>
	<path class="st0" d="M2600,18425.4c7-21,19-39,26-42c7-2,10,2,6,10C2602,18465.4,2578,18488.4,2600,18425.4z"/>
	<path class="st0" d="M2380,18441.4c-10-15,3-25,16-12c7,7,7,13,1,17C2391,18449.4,2383,18447.4,2380,18441.4z"/>
	<path class="st0" d="M2785,18432.4c0-5,5-10,10-10c6,0,10,5,10,10c0,6-4,10-10,10C2790,18442.4,2785,18438.4,2785,18432.4z"/>
	<path class="st0" d="M2330,18352.4c-3-5,3-10,14-10c12,0,21,5,21,10c0,6-6,10-14,10S2333,18358.4,2330,18352.4z"/>
	<path class="st0" d="M2285,18291.4c0-5,5-7,10-4c6,3,10,8,10,11c0,2-4,4-10,4C2290,18302.4,2285,18297.4,2285,18291.4z"/>
	<path class="st0" d="M2205,18278.4c0-9,5-16,10-16c6,0,10,4,10,9c0,6-4,13-10,16C2210,18290.4,2205,18286.4,2205,18278.4z"/>
	<path class="st0" d="M2320,18252.4c-3-5,3-10,15-10s18,5,15,10c-3,6-10,10-15,10S2323,18258.4,2320,18252.4z"/>
	<path class="st0" d="M2205,18231.4c0-5,5-7,10-4c6,3,10,8,10,11c0,2-4,4-10,4C2210,18242.4,2205,18237.4,2205,18231.4z"/>
	<path class="st0" d="M5906,18067.4c-181-40-346-186-405-360c-62-184-4-412,138-542c64-59,177-123,215-123h21v-1407
		c0-1638-10-3043-21-3043c-5,0-50,26-101,57s-183,103-293,159l-200,102l-3,1469c-1,807,0,1487,3,1510c6,39,10,44,73,79
		c167,94,272,277,272,474c0,158-55,285-175,405c-121,120-247,175-406,175c-211,0-410-130-512-336l-42-84l-410,2l-410,3l-3,222
		l-2,223l73,34c165,79,287,275,287,462c0,177-121,371-286,456c-96,49-154,63-264,63c-155-1-268-50-381-166c-104-105-145-228-136-401
		c5-89,9-105,48-185c53-111,124-183,230-236c42-20,83-37,92-37c16,0,17-26,17-301c0-181,4-317,11-343c12-49,39-84,89-115
		c35-21,42-21,551-21h516l33-67c40-80,143-187,214-222c27-13,79-32,115-41l66-16v-1442c0-1185-2-1444-13-1451c-7-4-30-5-50,0
		c-20,4-93,19-162,33c-69,15-149,31-177,37l-53,10v987v987l-317,305l-317,305l-211,3c-115,2-213,6-216,10c-4,4-14,32-24,62
		c-58,180-156,284-316,335c-275,86-563-78-620-354c-6-31-9-96-7-147c4-75,11-104,36-158c47-100,87-151,155-199c102-71,180-97,292-97
		c137,1,250,47,356,148l66,62h165h165l39-31c22-16,121-112,222-212l182-181l-2-905l-3-906l-369-3c-264-2-373,1-382,9
		c-11,9-14,53-14,200v188l63,31c196,98,307,270,307,479c0,281-258,521-560,521s-562-275-536-565c17-184,114-336,267-419
		c29-16,67-32,83-36l31-6l3-346l2-346l40-36l40-36h458c542,0,711-12,981-66c441-88,811-226,1100-409c118-75,288-202,358-268l32-30
		l53,42c224,180,348,261,564,369c290,145,532,225,899,296c239,46,386,56,900,62c506,6,550,10,590,54c21,23,23,62,24,440l1,276l63,31
		c90,45,138,83,190,152c86,114,121,262,94,395c-53,257-274,445-526,446c-351,1-614-298-547-620c40-190,156-333,317-390l54-18l3-195
		l2-195l-222-7c-123-3-286-5-363-3l-140,3l-3,915l-2,916l162,155c90,86,187,176,216,202l53,47h150h150l51-55c78-86,157-126,285-143
		c246-34,470,139,520,401c49,261-124,521-377,567c-218,40-462-121-540-354l-21-63l-185-6l-186-5l-151-149c-84-81-227-220-319-307
		l-168-159l-2-986l-3-986l-185-38c-102-20-202-40-222-43l-38-7v1446c0,1308,1,1445,16,1451c9,3,25,6,35,6c26,0,114,37,159,67
		c61,40,145,131,185,198l38,65h481h482l51,25c51,26,91,72,112,128c7,18,11,140,11,320c0,161,4,297,8,303c4,7,36,23,71,38
		c206,84,336,303,311,527c-15,133-66,234-168,332c-102,96-231,147-377,147c-153,0-275-51-386-160c-148-146-192-343-123-548
		c51-153,162-269,297-312l37-12l-2-216l-3-217h-394h-393l-24,64c-45,120-144,225-269,286c-97,48-173,65-285,65
		c-189-1-347-87-456-251c-72-109-98-192-98-319c-1-110,12-165,60-261c47-94,147-193,259-255c20-11,20-22,20-1515v-1504l-200-100
		c-182-90-297-156-364-207c-14-10-28-15-33-10c-4,4-5,1005-1,2224l6,2217l75,36c200,95,321,329,283,545c-33,185-169,346-351,418
		C6117,18083.4,6019,18091.4,5906,18067.4z M3587,17706.4c81-56,117-181,75-261c-36-68-117-122-183-123c-51,0-125,31-163,69
		c-98,98-68,260,59,329C3439,17754.4,3527,17748.4,3587,17706.4z M6096,17731.4c89-30,156-128,146-214c-11-100-96-183-197-193
		c-68-6-149,32-186,88c-32,48-43,128-24,184C5869,17701.4,5994,17765.4,6096,17731.4z M8662,17721.4c40-15,82-57,104-104
		c69-149-80-328-238-286c-184,50-217,292-51,375C8533,17734.4,8611,17741.4,8662,17721.4z M5117,16643.4c163-71,186-278,43-381
		c-46-33-54-35-126-35c-70,0-81,3-121,30C4698,16408.4,4877,16748.4,5117,16643.4z M7131,16643.4c178-81,193-283,29-385
		c-190-120-408,82-305,284C6907,16644.4,7030,16689.4,7131,16643.4z M2995,15815.4c43-25,88-96,96-150c9-60-9-115-54-165
		c-90-100-224-103-314-6c-62,67-72,151-28,237c24,47,36,57,107,87C2869,15847.4,2944,15845.4,2995,15815.4z M9200,15831.4
		c56-14,130-77,145-125c32-96-13-206-102-252c-100-52-190-34-263,51s-68,185,14,267C9059,15836.4,9115,15852.4,9200,15831.4z
		 M3248,14199.4c18-8,48-32,68-54c126-139,35-343-153-343c-122,0-208,83-208,202c0,79,32,135,100,176
		C3116,14216.4,3189,14223.4,3248,14199.4z M8971,14177.4c75-44,118-146,94-222c-60-187-311-212-391-38c-46,100,1,228,99,271
		c15,7,56,13,91,13C8916,14202.4,8937,14197.4,8971,14177.4z"/>
</g>
</svg>
